<svg xmlns="http://www.w3.org/2000/svg" xmlns:xlink="http://www.w3.org/1999/xlink" width="566" zoomAndPan="magnify" viewBox="0 0 424.5 269.999989" height="360" preserveAspectRatio="xMidYMid meet" version="1.0"><defs><clipPath id="88c397093b"><path d="M 1.558594 1.921875 L 422.5625 1.921875 L 422.5625 268.042969 L 1.558594 268.042969 Z M 1.558594 1.921875 " clip-rule="nonzero"/></clipPath><clipPath id="af4e7d5681"><path d="M 152.390625 1.921875 L 422.5625 1.921875 L 422.5625 268 L 152.390625 268 Z M 152.390625 1.921875 " clip-rule="nonzero"/></clipPath><clipPath id="998f9f8e22"><path d="M 43.667969 54.816406 L 110.035156 54.816406 L 110.035156 128.34375 L 43.667969 128.34375 Z M 43.667969 54.816406 " clip-rule="nonzero"/></clipPath><clipPath id="a062ced5e8"><path d="M 45.398438 60.011719 L 108.324219 60.011719 L 108.324219 110.953125 L 45.398438 110.953125 Z M 45.398438 60.011719 " clip-rule="nonzero"/></clipPath><clipPath id="f29342434e"><path d="M 117.59375 68.285156 L 143 68.285156 L 143 102.746094 L 117.59375 102.746094 Z M 117.59375 68.285156 " clip-rule="nonzero"/></clipPath><clipPath id="419dd18d2a"><path d="M 313.960938 64.507812 L 392.738281 64.507812 L 392.738281 143.28125 L 313.960938 143.28125 Z M 313.960938 64.507812 " clip-rule="nonzero"/></clipPath><clipPath id="2e93fc7ed5"><path d="M 323.234375 196.457031 L 361 196.457031 L 361 242.902344 L 323.234375 242.902344 Z M 323.234375 196.457031 " clip-rule="nonzero"/></clipPath><clipPath id="5718b5eebf"><path d="M 360 196.457031 L 397.394531 196.457031 L 397.394531 242.902344 L 360 242.902344 Z M 360 196.457031 " clip-rule="nonzero"/></clipPath></defs><g clip-path="url(#88c397093b)"><path fill="#171717" d="M 405.5 267.449219 L 19.234375 268.042969 C 9.683594 268.058594 1.925781 260.328125 1.914062 250.777344 L 1.558594 19.832031 C 1.542969 10.285156 9.273438 2.53125 18.824219 2.515625 L 405.089844 1.921875 C 414.636719 1.90625 422.394531 9.636719 422.410156 19.1875 L 422.761719 250.128906 C 422.777344 259.683594 415.046875 267.433594 405.5 267.449219 " fill-opacity="1" fill-rule="nonzero"/></g><g clip-path="url(#af4e7d5681)"><path fill="#ffffff" d="M 405.5 267.449219 C 405.503906 267.449219 405.515625 267.449219 405.523438 267.449219 C 405.515625 267.449219 405.503906 267.449219 405.5 267.449219 M 416.308594 263.632812 C 416.335938 263.613281 416.355469 263.59375 416.378906 263.570312 C 416.355469 263.59375 416.335938 263.613281 416.308594 263.632812 M 416.398438 263.558594 C 420.285156 260.386719 422.761719 255.5625 422.761719 250.160156 C 422.761719 255.5625 420.285156 260.386719 416.398438 263.558594 M 152.894531 2.3125 L 405.089844 1.921875 L 152.894531 2.3125 M 405.128906 1.921875 C 405.121094 1.921875 405.117188 1.921875 405.113281 1.921875 C 405.117188 1.921875 405.121094 1.921875 405.128906 1.921875 " fill-opacity="1" fill-rule="nonzero"/><path fill="#272424" d="M 257.207031 267.675781 L 152.894531 2.3125 L 405.089844 1.921875 C 405.097656 1.921875 405.105469 1.921875 405.113281 1.921875 C 405.117188 1.921875 405.121094 1.921875 405.128906 1.921875 C 414.660156 1.929688 422.394531 9.648438 422.410156 19.1875 L 422.761719 250.132812 C 422.761719 250.140625 422.761719 250.148438 422.761719 250.160156 C 422.761719 255.5625 420.285156 260.386719 416.398438 263.558594 C 416.394531 263.5625 416.386719 263.566406 416.378906 263.570312 C 416.355469 263.59375 416.335938 263.613281 416.308594 263.632812 C 413.359375 266.011719 409.609375 267.433594 405.523438 267.449219 C 405.515625 267.449219 405.503906 267.449219 405.5 267.449219 L 257.207031 267.675781 M 370.621094 82.003906 L 366.917969 85.71875 C 376.09375 94.863281 376.117188 109.773438 366.964844 118.949219 L 370.683594 122.652344 C 381.875 111.429688 381.84375 93.195312 370.621094 82.003906 M 362.425781 90.226562 L 358.722656 93.941406 C 363.363281 98.566406 363.375 106.109375 358.742188 110.753906 L 362.460938 114.457031 C 369.132812 107.765625 369.113281 96.894531 362.425781 90.226562 M 354.523438 98.148438 L 350.324219 102.359375 L 354.539062 106.554688 C 356.851562 104.230469 356.847656 100.46875 354.523438 98.148438 " fill-opacity="1" fill-rule="nonzero"/></g><path fill="#5f5f5f" d="M 354.539062 106.554688 L 350.324219 102.359375 L 354.523438 98.148438 C 356.847656 100.46875 356.851562 104.230469 354.539062 106.554688 " fill-opacity="1" fill-rule="nonzero"/><path fill="#5f5f5f" d="M 362.460938 114.457031 L 358.742188 110.753906 C 363.375 106.109375 363.363281 98.566406 358.722656 93.941406 L 362.425781 90.226562 C 369.113281 96.894531 369.132812 107.765625 362.460938 114.457031 " fill-opacity="1" fill-rule="nonzero"/><path fill="#5f5f5f" d="M 370.683594 122.652344 L 366.964844 118.949219 C 376.117188 109.773438 376.09375 94.863281 366.917969 85.71875 L 370.621094 82.003906 C 381.84375 93.195312 381.875 111.429688 370.683594 122.652344 " fill-opacity="1" fill-rule="nonzero"/><path fill="#5f5f5f" d="M 91.683594 110.753906 C 91.5625 110.308594 91.433594 109.925781 91.289062 109.558594 C 89.46875 104.871094 89.398438 100.097656 91.09375 96.125 C 91.320312 95.601562 91.515625 95.046875 91.683594 94.464844 L 109.375 94.460938 L 109.378906 110.746094 L 91.683594 110.753906 " fill-opacity="1" fill-rule="nonzero"/><path fill="#5f5f5f" d="M 86.109375 127.015625 C 86.554688 126.699219 86.957031 126.378906 87.328125 126.042969 C 90.488281 123.21875 92.296875 119.171875 92.292969 114.9375 C 92.292969 114.167969 92.230469 113.378906 92.101562 112.59375 L 109.378906 112.585938 L 109.382812 119.851562 C 109.382812 123.796875 106.171875 127.007812 102.226562 127.007812 L 86.109375 127.015625 " fill-opacity="1" fill-rule="nonzero"/><path fill="#5f5f5f" d="M 45.421875 110.765625 L 45.414062 94.480469 L 63.105469 94.476562 C 63.230469 94.910156 63.363281 95.304688 63.503906 95.667969 C 65.324219 100.359375 65.394531 105.128906 63.699219 109.101562 C 63.472656 109.628906 63.277344 110.183594 63.109375 110.761719 L 45.421875 110.765625 " fill-opacity="1" fill-rule="nonzero"/><path fill="#5f5f5f" d="M 72.433594 127.019531 L 71.984375 126.8125 C 67.875 124.921875 64.988281 121.003906 64.449219 116.59375 C 64.164062 114.273438 64.488281 111.933594 65.390625 109.824219 C 67.277344 105.410156 67.214844 100.144531 65.21875 95.003906 C 64.636719 93.503906 64.339844 91.914062 64.339844 90.289062 C 64.339844 86.578125 65.925781 83.03125 68.691406 80.550781 C 69.65625 79.691406 70.753906 78.972656 71.949219 78.417969 L 72.40625 78.210938 L 102.210938 78.199219 C 104.125 78.199219 105.921875 78.945312 107.273438 80.296875 C 108.625 81.648438 109.371094 83.441406 109.371094 85.355469 L 109.371094 92.625 L 91.496094 92.628906 L 90.246094 92.609375 L 90.15625 93.019531 C 89.984375 93.839844 89.730469 94.636719 89.40625 95.402344 C 87.519531 99.820312 87.578125 105.082031 89.574219 110.222656 C 90.15625 111.726562 90.453125 113.3125 90.453125 114.9375 C 90.453125 118.648438 88.867188 122.195312 86.101562 124.675781 C 85.136719 125.539062 84.039062 126.253906 82.84375 126.808594 L 82.390625 127.015625 L 72.433594 127.019531 " fill-opacity="1" fill-rule="nonzero"/><path fill="#5f5f5f" d="M 52.582031 127.027344 C 48.636719 127.027344 45.425781 123.816406 45.421875 119.871094 L 45.421875 112.605469 L 62.695312 112.597656 C 62.476562 113.992188 62.449219 115.40625 62.625 116.816406 C 63.117188 120.839844 65.371094 124.597656 68.71875 127.019531 L 52.582031 127.027344 " fill-opacity="1" fill-rule="nonzero"/><path fill="#5f5f5f" d="M 45.414062 92.640625 L 45.414062 85.378906 C 45.410156 81.429688 48.621094 78.21875 52.566406 78.21875 L 68.683594 78.210938 C 68.246094 78.523438 67.839844 78.84375 67.464844 79.183594 C 64.304688 82.007812 62.496094 86.054688 62.5 90.289062 C 62.5 91.058594 62.566406 91.847656 62.691406 92.632812 L 45.414062 92.640625 " fill-opacity="1" fill-rule="nonzero"/><g clip-path="url(#998f9f8e22)"><path fill="#171717" d="M 43.667969 54.816406 L 110.035156 54.816406 L 110.035156 128.445312 L 43.667969 128.445312 Z M 43.667969 54.816406 " fill-opacity="1" fill-rule="nonzero"/></g><g clip-path="url(#a062ced5e8)"><path fill="#d6a65f" d="M 67.058594 92.554688 L 67.058594 79.566406 L 45.472656 79.566406 L 45.472656 92.554688 Z M 86.324219 94.007812 L 81.042969 96.476562 L 81.042969 103.199219 L 86.726562 111.199219 L 99.6875 111.199219 C 104.410156 111.199219 108.238281 107.371094 108.238281 102.652344 L 108.238281 94.007812 Z M 72.785156 102.746094 L 72.785156 96.59375 L 67.613281 94.007812 L 45.472656 94.007812 L 45.472656 102.652344 C 45.472656 107.371094 49.300781 111.199219 54.019531 111.199219 L 66.851562 111.199219 Z M 81.042969 69.035156 L 81.042969 75.199219 L 79.589844 75.199219 L 79.589844 68.609375 L 85.082031 60.011719 L 68.519531 60.011719 L 74.238281 68.867188 L 74.238281 75.597656 L 68.507812 79.238281 L 68.507812 92.832031 L 74.238281 95.695312 L 74.238281 103.203125 L 68.625 111.199219 L 84.945312 111.199219 L 79.589844 103.660156 L 79.589844 95.550781 L 85.4375 92.820312 L 85.4375 78.113281 L 108.238281 78.113281 L 108.238281 68.558594 C 108.238281 63.839844 104.410156 60.011719 99.6875 60.011719 L 86.804688 60.011719 Z M 67.570312 78.113281 L 72.785156 74.796875 L 72.785156 69.296875 L 66.792969 60.011719 L 54.019531 60.011719 C 49.300781 60.011719 45.472656 63.839844 45.472656 68.558594 L 45.472656 78.113281 Z M 86.890625 92.554688 L 86.890625 79.566406 L 108.238281 79.566406 L 108.238281 92.554688 L 86.890625 92.554688 " fill-opacity="1" fill-rule="nonzero"/></g><g clip-path="url(#f29342434e)"><path fill="#5f5f5f" d="M 135.019531 68.390625 L 131.890625 71.519531 C 139.664062 79.296875 139.664062 91.910156 131.890625 99.6875 L 135.019531 102.816406 C 144.515625 93.320312 144.515625 77.90625 135.019531 68.390625 Z M 122.5 80.910156 L 117.804688 85.605469 L 122.5 90.296875 C 125.097656 87.714844 125.097656 83.507812 122.5 80.910156 Z M 128.757812 74.652344 L 125.628906 77.78125 C 129.949219 82.097656 129.949219 89.109375 125.628906 93.429688 L 128.757812 96.558594 C 134.800781 90.515625 134.800781 80.707031 128.757812 74.652344 Z M 128.757812 74.652344 " fill-opacity="1" fill-rule="nonzero"/></g><g clip-path="url(#419dd18d2a)"><path fill="#272424" d="M 313.960938 64.507812 L 392.738281 64.507812 L 392.738281 143.28125 L 313.960938 143.28125 Z M 313.960938 64.507812 " fill-opacity="1" fill-rule="nonzero"/></g><path fill="#ff5a00" d="M 350.25 201.375 L 370.320312 201.375 L 370.320312 237.480469 L 350.25 237.480469 Z M 350.25 201.375 " fill-opacity="1" fill-rule="nonzero"/><g clip-path="url(#2e93fc7ed5)"><path fill="#eb001b" d="M 351.585938 219.425781 C 351.585938 212.089844 355.027344 205.582031 360.3125 201.375 C 356.425781 198.3125 351.519531 196.460938 346.167969 196.460938 C 333.488281 196.460938 323.234375 206.734375 323.234375 219.425781 C 323.234375 232.121094 333.488281 242.390625 346.167969 242.390625 C 351.519531 242.390625 356.425781 240.539062 360.3125 237.480469 C 355.023438 233.332031 351.585938 226.761719 351.585938 219.425781 Z M 351.585938 219.425781 " fill-opacity="1" fill-rule="nonzero"/></g><g clip-path="url(#5718b5eebf)"><path fill="#f79e1b" d="M 397.394531 219.425781 C 397.394531 232.121094 387.136719 242.390625 374.460938 242.390625 C 369.109375 242.390625 364.203125 240.539062 360.3125 237.480469 C 365.664062 233.265625 369.042969 226.761719 369.042969 219.425781 C 369.042969 212.089844 365.597656 205.582031 360.3125 201.375 C 364.195312 198.3125 369.101562 196.460938 374.453125 196.460938 C 387.136719 196.460938 397.394531 206.800781 397.394531 219.425781 Z M 397.394531 219.425781 " fill-opacity="1" fill-rule="nonzero"/></g></svg>