<svg xmlns="http://www.w3.org/2000/svg" xmlns:xlink="http://www.w3.org/1999/xlink" width="200" zoomAndPan="magnify" viewBox="0 0 150 37.5" height="50" preserveAspectRatio="xMidYMid meet" version="1.0"><defs><g/><clipPath id="22684ccd13"><path d="M 102.082031 14.492188 L 103.707031 14.492188 L 103.707031 22.914062 L 102.082031 22.914062 Z M 102.082031 14.492188 " clip-rule="nonzero"/></clipPath><clipPath id="7695371953"><path d="M 102 14 L 109 14 L 109 22 L 102 22 Z M 102 14 " clip-rule="nonzero"/></clipPath><clipPath id="328514b433"><path d="M 107.109375 21.742188 L 102.398438 15.46875 L 103.699219 14.492188 L 108.410156 20.765625 Z M 107.109375 21.742188 " clip-rule="nonzero"/></clipPath><clipPath id="1493786638"><path d="M 107.109375 21.742188 L 102.402344 15.476562 L 103.703125 14.5 L 108.410156 20.765625 Z M 107.109375 21.742188 " clip-rule="nonzero"/></clipPath><clipPath id="b6eed2beb5"><path d="M 19.785156 0.730469 L 59.597656 0.730469 L 59.597656 35.566406 L 19.785156 35.566406 Z M 19.785156 0.730469 " clip-rule="nonzero"/></clipPath><clipPath id="dc38fa09b7"><path d="M 44 16 L 57 16 L 57 32 L 44 32 Z M 44 16 " clip-rule="nonzero"/></clipPath><clipPath id="580bab99ef"><path d="M 44.855469 31.519531 L 54.351562 15.574219 L 56.101562 16.617188 L 46.605469 32.5625 Z M 44.855469 31.519531 " clip-rule="nonzero"/></clipPath><clipPath id="64a1442f04"><path d="M 52.65625 18.417969 L 44.855469 31.519531 L 48.300781 29.71875 L 56.101562 16.617188 Z M 52.65625 18.417969 " clip-rule="nonzero"/></clipPath><clipPath id="c2122d855a"><path d="M 44 28 L 49 28 L 49 32 L 44 32 Z M 44 28 " clip-rule="nonzero"/></clipPath><clipPath id="4be131e1ca"><path d="M 49.136719 30.136719 L 45.65625 32.628906 L 44.808594 31.445312 L 48.292969 28.953125 Z M 49.136719 30.136719 " clip-rule="nonzero"/></clipPath><clipPath id="0040338aa7"><path d="M 47.398438 31.378906 L 44.8125 31.441406 L 48.292969 28.953125 Z M 47.398438 31.378906 " clip-rule="nonzero"/></clipPath><clipPath id="7f95d3d525"><path d="M 46 29 L 49 29 L 49 32 L 46 32 Z M 46 29 " clip-rule="nonzero"/></clipPath><clipPath id="04ac1225f7"><path d="M 46.246094 30.429688 L 47.183594 28.835938 L 48.394531 29.546875 L 47.460938 31.140625 Z M 46.246094 30.429688 " clip-rule="nonzero"/></clipPath><clipPath id="c845feb0e2"><path d="M 46.714844 29.632812 L 48.394531 29.550781 L 47.460938 31.140625 Z M 46.714844 29.632812 " clip-rule="nonzero"/></clipPath><clipPath id="f6502ddfdf"><path d="M 37 13 L 54 13 L 54 36 L 37 36 Z M 37 13 " clip-rule="nonzero"/></clipPath><clipPath id="e8c579093e"><path d="M 37.976562 35.085938 L 51.804688 11.832031 L 53.804688 13.019531 L 39.976562 36.273438 Z M 37.976562 35.085938 " clip-rule="nonzero"/></clipPath><clipPath id="e1e775117a"><path d="M 49.941406 14.96875 L 37.976562 35.085938 L 41.839844 33.140625 L 53.800781 13.023438 Z M 49.941406 14.96875 " clip-rule="nonzero"/></clipPath><clipPath id="353fe4bd40"><path d="M 49 12 L 54 12 L 54 17 L 49 17 Z M 49 12 " clip-rule="nonzero"/></clipPath><clipPath id="60b56c3f3c"><path d="M 53.003906 12.671875 L 53.707031 16.339844 L 50.214844 17.007812 L 49.515625 13.339844 Z M 53.003906 12.671875 " clip-rule="nonzero"/></clipPath><clipPath id="42a18bf092"><path d="M 53.003906 12.671875 L 53.703125 16.332031 L 50.214844 17 L 49.515625 13.339844 Z M 53.003906 12.671875 " clip-rule="nonzero"/></clipPath><clipPath id="a21c58d4ac"><path d="M 50 16 L 53 16 L 53 19 L 50 19 Z M 50 16 " clip-rule="nonzero"/></clipPath><clipPath id="2a61c0fe83"><path d="M 52.140625 16.550781 L 52.476562 18.308594 L 50.507812 18.683594 L 50.171875 16.925781 Z M 52.140625 16.550781 " clip-rule="nonzero"/></clipPath><clipPath id="a930130a43"><path d="M 52.140625 16.550781 L 52.476562 18.308594 L 50.507812 18.683594 L 50.171875 16.925781 Z M 52.140625 16.550781 " clip-rule="nonzero"/></clipPath><clipPath id="7e47874be3"><path d="M 52 15 L 56 15 L 56 19 L 52 19 Z M 52 15 " clip-rule="nonzero"/></clipPath><clipPath id="463a1c0cf3"><path d="M 54.277344 15.734375 L 55.394531 17.4375 L 53.136719 18.917969 L 52.019531 17.21875 Z M 54.277344 15.734375 " clip-rule="nonzero"/></clipPath><clipPath id="d076690a9a"><path d="M 54.277344 15.734375 L 55.394531 17.4375 L 53.140625 18.917969 L 52.023438 17.214844 Z M 54.277344 15.734375 " clip-rule="nonzero"/></clipPath><clipPath id="da334c9873"><path d="M 51 17 L 55 17 L 55 22 L 51 22 Z M 51 17 " clip-rule="nonzero"/></clipPath><clipPath id="07be7e54d3"><path d="M 53.5 17.339844 L 54.230469 21.15625 L 52.269531 21.53125 L 51.539062 17.714844 Z M 53.5 17.339844 " clip-rule="nonzero"/></clipPath><clipPath id="df62bb3f3d"><path d="M 53.5 17.339844 L 54.230469 21.148438 L 52.269531 21.523438 L 51.539062 17.714844 Z M 53.5 17.339844 " clip-rule="nonzero"/></clipPath><clipPath id="63d1e1ad01"><path d="M 52 17 L 56 17 L 56 22 L 52 22 Z M 52 17 " clip-rule="nonzero"/></clipPath><clipPath id="78beb7c0a2"><path d="M 54.414062 17.078125 L 55.703125 17.691406 L 53.898438 21.472656 L 52.609375 20.855469 Z M 54.414062 17.078125 " clip-rule="nonzero"/></clipPath><clipPath id="49a8142dbd"><path d="M 54.414062 17.078125 L 55.703125 17.691406 L 53.902344 21.46875 L 52.613281 20.851562 Z M 54.414062 17.078125 " clip-rule="nonzero"/></clipPath><clipPath id="39648f331d"><path d="M 52 21 L 54 21 L 54 23 L 52 23 Z M 52 21 " clip-rule="nonzero"/></clipPath><clipPath id="c9d4456c90"><path d="M 53.449219 21.03125 L 53.707031 22.378906 L 52.5 22.609375 L 52.242188 21.261719 Z M 53.449219 21.03125 " clip-rule="nonzero"/></clipPath><clipPath id="f908f126f7"><path d="M 53.449219 21.03125 L 53.707031 22.378906 L 52.5 22.609375 L 52.242188 21.261719 Z M 53.449219 21.03125 " clip-rule="nonzero"/></clipPath><clipPath id="699284bcd2"><path d="M 38 7 L 49 7 L 49 18 L 38 18 Z M 38 7 " clip-rule="nonzero"/></clipPath><clipPath id="89f62bc902"><path d="M 46.851562 17.71875 L 38.085938 9.609375 L 39.789062 7.769531 L 48.550781 15.878906 Z M 46.851562 17.71875 " clip-rule="nonzero"/></clipPath><clipPath id="618174c92a"><path d="M 46.851562 17.71875 L 38.089844 9.617188 L 39.792969 7.773438 L 48.550781 15.878906 Z M 46.851562 17.71875 " clip-rule="nonzero"/></clipPath><clipPath id="2a3d439d57"><path d="M 47 30 L 49 30 L 49 33 L 47 33 Z M 47 30 " clip-rule="nonzero"/></clipPath><clipPath id="a8936cb69d"><path d="M 47.203125 31.765625 L 47.675781 30.992188 L 48.300781 31.371094 L 47.828125 32.144531 Z M 47.203125 31.765625 " clip-rule="nonzero"/></clipPath><clipPath id="b713914a03"><path d="M 47.203125 31.765625 L 47.675781 30.992188 L 48.296875 31.371094 L 47.828125 32.144531 Z M 47.203125 31.765625 " clip-rule="nonzero"/></clipPath><clipPath id="6fcdb1c36b"><path d="M 27 7 L 42 7 L 42 23 L 27 23 Z M 27 7 " clip-rule="nonzero"/></clipPath><clipPath id="751851dd5d"><path d="M 27.335938 20.875 L 39.824219 7.773438 L 41.640625 9.503906 L 29.148438 22.605469 Z M 27.335938 20.875 " clip-rule="nonzero"/></clipPath><clipPath id="d6a46cd5de"><path d="M 27.335938 20.875 L 39.820312 7.777344 L 41.636719 9.507812 L 29.148438 22.605469 Z M 27.335938 20.875 " clip-rule="nonzero"/></clipPath><clipPath id="201a67b0ec"><path d="M 50 15 L 52 15 L 52 17 L 50 17 Z M 50 15 " clip-rule="nonzero"/></clipPath><clipPath id="8359610289"><path d="M 51.121094 15.152344 L 51.542969 15.796875 L 50.773438 16.296875 L 50.351562 15.65625 Z M 51.121094 15.152344 " clip-rule="nonzero"/></clipPath><clipPath id="ed94a2b64c"><path d="M 51.121094 15.152344 L 51.542969 15.796875 L 50.773438 16.296875 L 50.355469 15.652344 Z M 51.121094 15.152344 " clip-rule="nonzero"/></clipPath><clipPath id="d1b993e819"><path d="M 46 16 L 48 16 L 48 19 L 46 19 Z M 46 16 " clip-rule="nonzero"/></clipPath><clipPath id="6de564af3f"><path d="M 47.394531 16.300781 L 48.292969 17.078125 L 47.351562 18.160156 L 46.457031 17.382812 Z M 47.394531 16.300781 " clip-rule="nonzero"/></clipPath><clipPath id="c8c8fe8e4e"><path d="M 47.84375 16.691406 L 47.355469 18.160156 L 46.457031 17.378906 Z M 47.84375 16.691406 " clip-rule="nonzero"/></clipPath><clipPath id="8e50a0d54f"><path d="M 47 16 L 49 16 L 49 19 L 47 19 Z M 47 16 " clip-rule="nonzero"/></clipPath><clipPath id="a638f7a03f"><path d="M 46.609375 17.671875 L 47.964844 15.574219 L 48.722656 16.0625 L 47.371094 18.160156 Z M 46.609375 17.671875 " clip-rule="nonzero"/></clipPath><clipPath id="c9826318bb"><path d="M 47.289062 16.625 L 48.722656 16.0625 L 47.371094 18.160156 Z M 47.289062 16.625 " clip-rule="nonzero"/></clipPath><clipPath id="9e0b9acdf1"><path d="M 46 15 L 49 15 L 49 18 L 46 18 Z M 46 15 " clip-rule="nonzero"/></clipPath><clipPath id="6e14750176"><path d="M 47.101562 17.980469 L 46.261719 17.222656 L 47.945312 15.355469 L 48.785156 16.113281 Z M 47.101562 17.980469 " clip-rule="nonzero"/></clipPath><clipPath id="33249ffa40"><path d="M 46.679688 17.601562 L 47.941406 15.359375 L 48.78125 16.113281 Z M 46.679688 17.601562 " clip-rule="nonzero"/></clipPath><clipPath id="8f3e8b6135"><path d="M 46 15 L 50 15 L 50 19 L 46 19 Z M 46 15 " clip-rule="nonzero"/></clipPath><clipPath id="6ea4a2231c"><path d="M 46.40625 18.230469 L 48.335938 15.207031 L 49.40625 15.890625 L 47.472656 18.914062 Z M 46.40625 18.230469 " clip-rule="nonzero"/></clipPath><clipPath id="eb447886f8"><path d="M 46.40625 18.230469 L 48.335938 15.210938 L 49.40625 15.894531 L 47.472656 18.914062 Z M 46.40625 18.230469 " clip-rule="nonzero"/></clipPath><clipPath id="61b83b5f78"><path d="M 27 19 L 37 19 L 37 29 L 27 29 Z M 27 19 " clip-rule="nonzero"/></clipPath><clipPath id="a698c1098d"><path d="M 35.097656 28.222656 L 27.332031 20.84375 L 29.058594 19.023438 L 36.824219 26.40625 Z M 35.097656 28.222656 " clip-rule="nonzero"/></clipPath><clipPath id="16b901366d"><path d="M 35.097656 28.222656 L 27.332031 20.84375 L 29.058594 19.023438 L 36.824219 26.40625 Z M 35.097656 28.222656 " clip-rule="nonzero"/></clipPath><clipPath id="4e4bfe233b"><path d="M 35 26 L 44 26 L 44 29 L 35 29 Z M 35 26 " clip-rule="nonzero"/></clipPath><clipPath id="61a17be444"><path d="M 43.535156 28.40625 L 35.070312 28.253906 L 35.105469 26.246094 L 43.570312 26.398438 Z M 43.535156 28.40625 " clip-rule="nonzero"/></clipPath><clipPath id="bda818dd70"><path d="M 43.535156 28.40625 L 35.074219 28.253906 L 35.109375 26.246094 L 43.570312 26.398438 Z M 43.535156 28.40625 " clip-rule="nonzero"/></clipPath><clipPath id="443c614a99"><path d="M 40 20 L 47 20 L 47 30 L 40 30 Z M 40 20 " clip-rule="nonzero"/></clipPath><clipPath id="7ca7e0dc6d"><path d="M 40.175781 28.769531 L 45.332031 20 L 46.46875 20.667969 L 41.308594 29.4375 Z M 40.175781 28.769531 " clip-rule="nonzero"/></clipPath><clipPath id="975abcddce"><path d="M 40.175781 28.769531 L 45.332031 20 L 46.464844 20.667969 L 41.308594 29.4375 Z M 40.175781 28.769531 " clip-rule="nonzero"/></clipPath><clipPath id="39628b318d"><path d="M 36.230469 13.019531 L 43.429688 13.019531 L 43.429688 24.164062 L 36.230469 24.164062 Z M 36.230469 13.019531 " clip-rule="nonzero"/></clipPath><clipPath id="2b4dc80d1c"><path d="M 38.664062 18.035156 C 38.507812 17.921875 37.964844 17.824219 38.136719 17.554688 C 38.328125 17.230469 38.523438 16.910156 38.71875 16.585938 C 38.914062 16.265625 39.109375 15.949219 39.308594 15.628906 C 39.339844 15.578125 39.359375 15.527344 39.359375 15.464844 C 39.355469 15.296875 39.371094 15.128906 39.371094 14.964844 C 39.265625 14.597656 39.019531 14.265625 39.015625 13.867188 C 39.015625 12.523438 41.554688 12.75 40.347656 14.832031 C 40.292969 14.90625 40.25 14.984375 40.261719 15.082031 C 40.285156 15.234375 40.246094 15.398438 40.296875 15.542969 C 40.742188 16.210938 41.191406 16.878906 41.636719 17.542969 C 41.6875 17.609375 41.632812 17.683594 41.621094 17.753906 C 41.535156 17.898438 41.289062 17.925781 41.152344 18.019531 C 41.628906 18.679688 42.066406 19.371094 42.601562 19.980469 C 42.472656 20.226562 42.0625 20.234375 41.828125 20.347656 C 43.789062 23.570312 44.535156 22.890625 40.605469 23.160156 C 40.625 23.492188 40.640625 23.824219 40.65625 24.15625 C 40.105469 24.144531 39.5625 24.132812 39.011719 24.121094 C 39.039062 23.800781 39.070312 23.484375 39.101562 23.164062 C 38.191406 23.144531 37.285156 23.066406 36.378906 23.015625 C 36.300781 22.996094 36.257812 22.914062 36.230469 22.839844 C 36.234375 22.773438 36.273438 22.710938 36.296875 22.652344 C 36.839844 21.859375 37.386719 21.070312 37.925781 20.277344 C 37.636719 20.25 37.410156 20.246094 37.1875 20.027344 C 37.597656 19.308594 38.179688 18.707031 38.664062 18.035156 Z M 39.851562 14.929688 C 39.890625 14.921875 39.941406 14.945312 39.960938 14.894531 C 40 14.800781 40.042969 14.703125 40.089844 14.613281 C 40.328125 14.226562 40.425781 13.359375 39.769531 13.425781 C 39.613281 13.433594 39.535156 13.566406 39.441406 13.671875 C 39.277344 13.914062 39.488281 14.222656 39.558594 14.464844 C 39.617188 14.574219 39.695312 14.980469 39.851562 14.929688 Z M 39.851562 14.929688 " clip-rule="nonzero"/></clipPath><clipPath id="e9cd6f034d"><path d="M 38.21875 13.023438 L 41.429688 13.023438 L 41.429688 15.652344 L 38.21875 15.652344 Z M 38.21875 13.023438 " clip-rule="nonzero"/></clipPath><clipPath id="b8aae1b3b4"><path d="M 44.410156 31.285156 L 44.992188 31.285156 L 44.992188 31.863281 L 44.410156 31.863281 Z M 44.410156 31.285156 " clip-rule="nonzero"/></clipPath><clipPath id="de29b880a5"><path d="M 33.082031 6.667969 L 35.3125 6.667969 L 35.3125 8.898438 L 33.082031 8.898438 Z M 33.082031 6.667969 " clip-rule="nonzero"/></clipPath><clipPath id="ceb6206aa3"><path d="M 34.195312 6.667969 C 33.578125 6.667969 33.082031 7.167969 33.082031 7.78125 C 33.082031 8.398438 33.578125 8.898438 34.195312 8.898438 C 34.8125 8.898438 35.3125 8.398438 35.3125 7.78125 C 35.3125 7.167969 34.8125 6.667969 34.195312 6.667969 Z M 34.195312 6.667969 " clip-rule="nonzero"/></clipPath><clipPath id="e7f4085681"><path d="M 42 8 L 47 8 L 47 13 L 42 13 Z M 42 8 " clip-rule="nonzero"/></clipPath><clipPath id="421b8b20aa"><path d="M 42.757812 11.253906 L 45.386719 8.238281 L 46.878906 9.539062 L 44.25 12.554688 Z M 42.757812 11.253906 " clip-rule="nonzero"/></clipPath><clipPath id="e2fa84253b"><path d="M 42.757812 11.253906 L 45.382812 8.246094 L 46.875 9.546875 L 44.25 12.554688 Z M 42.757812 11.253906 " clip-rule="nonzero"/></clipPath><clipPath id="2848b21240"><path d="M 44 8 L 51 8 L 51 14 L 44 14 Z M 44 8 " clip-rule="nonzero"/></clipPath><clipPath id="4404aab1a2"><path d="M 45.429688 8.164062 L 50.140625 12.148438 L 48.917969 13.589844 L 44.207031 9.605469 Z M 45.429688 8.164062 " clip-rule="nonzero"/></clipPath><clipPath id="807c596812"><path d="M 45.429688 8.164062 L 50.136719 12.144531 L 48.914062 13.589844 L 44.207031 9.605469 Z M 45.429688 8.164062 " clip-rule="nonzero"/></clipPath><clipPath id="75a752fd0b"><path d="M 46.730469 11.851562 L 50.191406 11.851562 L 50.191406 13.703125 L 46.730469 13.703125 Z M 46.730469 11.851562 " clip-rule="nonzero"/></clipPath><clipPath id="c45232d5b1"><path d="M 29 11 L 35 11 L 35 17 L 29 17 Z M 29 11 " clip-rule="nonzero"/></clipPath><clipPath id="701cd6cfff"><path d="M 32.792969 16.296875 L 29.601562 13.105469 L 31 11.707031 L 34.191406 14.898438 Z M 32.792969 16.296875 " clip-rule="nonzero"/></clipPath><clipPath id="f0c53b9e76"><path d="M 32.792969 16.296875 L 29.609375 13.109375 L 31.007812 11.710938 L 34.191406 14.898438 Z M 32.792969 16.296875 " clip-rule="nonzero"/></clipPath><clipPath id="dc56028e1a"><path d="M 26 11 L 33 11 L 33 18 L 26 18 Z M 26 11 " clip-rule="nonzero"/></clipPath><clipPath id="5b65901371"><path d="M 26.464844 16.195312 L 30.949219 11.710938 L 32.285156 13.046875 L 27.800781 17.53125 Z M 26.464844 16.195312 " clip-rule="nonzero"/></clipPath><clipPath id="314621263b"><path d="M 26.464844 16.195312 L 30.945312 11.710938 L 32.285156 13.050781 L 27.800781 17.53125 Z M 26.464844 16.195312 " clip-rule="nonzero"/></clipPath><clipPath id="c6fed2b05e"><path d="M 26.035156 15.679688 L 30.1875 15.679688 L 30.1875 17.535156 L 26.035156 17.535156 Z M 26.035156 15.679688 " clip-rule="nonzero"/></clipPath><clipPath id="029ea958e1"><path d="M 30 27 L 36 27 L 36 32 L 30 32 Z M 30 27 " clip-rule="nonzero"/></clipPath><clipPath id="bbb76452ca"><path d="M 35.761719 29.476562 L 34.144531 32.152344 L 30.292969 29.828125 L 31.910156 27.148438 Z M 35.761719 29.476562 " clip-rule="nonzero"/></clipPath><clipPath id="f923d19811"><path d="M 35.203125 30.402344 L 34.703125 31.226562 L 30.300781 29.832031 L 31.917969 27.15625 Z M 35.203125 30.402344 " clip-rule="nonzero"/></clipPath><clipPath id="178df2430b"><path d="M 29 27 L 33 27 L 33 33 L 29 33 Z M 29 27 " clip-rule="nonzero"/></clipPath><clipPath id="365a1fedcb"><path d="M 30.652344 27.902344 L 32.796875 31.460938 L 31.640625 32.15625 L 29.5 28.597656 Z M 30.652344 27.902344 " clip-rule="nonzero"/></clipPath><clipPath id="d7ae0d26e2"><path d="M 30.652344 27.902344 L 32.792969 31.460938 L 31.640625 32.152344 L 29.5 28.597656 Z M 30.652344 27.902344 " clip-rule="nonzero"/></clipPath><clipPath id="ab9d96f0a3"><path d="M 49 12 L 57 12 L 57 21 L 49 21 Z M 49 12 " clip-rule="nonzero"/></clipPath><clipPath id="ca56721131"><path d="M 49.855469 14.796875 L 53.199219 12.933594 L 56.109375 18.140625 L 52.765625 20.007812 Z M 49.855469 14.796875 " clip-rule="nonzero"/></clipPath><clipPath id="6a39686386"><path d="M 49.855469 14.796875 L 53.199219 12.933594 L 56.105469 18.136719 L 52.761719 20.003906 Z M 49.855469 14.796875 " clip-rule="nonzero"/></clipPath></defs><g clip-path="url(#22684ccd13)"><path fill="#000000" d="M 102.082031 22.914062 L 102.082031 14.492188 L 103.707031 14.492188 L 103.707031 22.914062 Z M 102.082031 22.914062 " fill-opacity="1" fill-rule="nonzero"/></g><g fill="#000000" fill-opacity="1"><g transform="translate(64.442758, 22.86758)"><g><path d="M 4.25 0 L 2.484375 0 L 2.484375 -6.84375 L 0.234375 -6.84375 L 0.234375 -8.3125 L 6.515625 -8.3125 L 6.515625 -6.84375 L 4.25 -6.84375 Z M 4.25 0 "/></g></g></g><g fill="#000000" fill-opacity="1"><g transform="translate(71.181747, 22.86758)"><g><path d="M 2.8125 -4.625 L 3.375 -4.625 C 3.9375 -4.625 4.347656 -4.710938 4.609375 -4.890625 C 4.867188 -5.078125 5 -5.375 5 -5.78125 C 5 -6.164062 4.863281 -6.441406 4.59375 -6.609375 C 4.320312 -6.773438 3.90625 -6.859375 3.34375 -6.859375 L 2.8125 -6.859375 Z M 2.8125 -3.1875 L 2.8125 0 L 1.046875 0 L 1.046875 -8.3125 L 3.46875 -8.3125 C 4.59375 -8.3125 5.425781 -8.101562 5.96875 -7.6875 C 6.507812 -7.28125 6.78125 -6.660156 6.78125 -5.828125 C 6.78125 -5.335938 6.644531 -4.898438 6.375 -4.515625 C 6.113281 -4.128906 5.734375 -3.832031 5.234375 -3.625 C 6.484375 -1.75 7.300781 -0.539062 7.6875 0 L 5.734375 0 L 3.75 -3.1875 Z M 2.8125 -3.1875 "/></g></g></g><g fill="#000000" fill-opacity="1"><g transform="translate(78.863966, 22.86758)"><g><path d="M 5.828125 0 L 1.046875 0 L 1.046875 -8.3125 L 5.828125 -8.3125 L 5.828125 -6.859375 L 2.8125 -6.859375 L 2.8125 -5.046875 L 5.625 -5.046875 L 5.625 -3.59375 L 2.8125 -3.59375 L 2.8125 -1.453125 L 5.828125 -1.453125 Z M 5.828125 0 "/></g></g></g><g fill="#000000" fill-opacity="1"><g transform="translate(85.381353, 22.86758)"><g><path d="M 7.734375 0 L 5.734375 0 L 3.546875 -3.5 L 2.8125 -2.96875 L 2.8125 0 L 1.046875 0 L 1.046875 -8.3125 L 2.8125 -8.3125 L 2.8125 -4.5 L 3.5 -5.484375 L 5.75 -8.3125 L 7.703125 -8.3125 L 4.8125 -4.625 Z M 7.734375 0 "/></g></g></g><g fill="#000000" fill-opacity="1"><g transform="translate(93.109029, 22.86758)"><g><path d="M 6.140625 0 L 5.53125 -1.984375 L 2.5 -1.984375 L 1.890625 0 L 0 0 L 2.9375 -8.34375 L 5.09375 -8.34375 L 8.03125 0 Z M 5.109375 -3.453125 C 4.554688 -5.242188 4.242188 -6.253906 4.171875 -6.484375 C 4.097656 -6.722656 4.046875 -6.910156 4.015625 -7.046875 C 3.890625 -6.566406 3.53125 -5.367188 2.9375 -3.453125 Z M 5.109375 -3.453125 "/></g></g></g><g fill="#000000" fill-opacity="1"><g transform="translate(105.586157, 22.86758)"><g><path d="M 4.203125 -4.671875 L 7.5 -4.671875 L 7.5 -0.359375 C 6.96875 -0.179688 6.460938 -0.0625 5.984375 0 C 5.515625 0.0703125 5.035156 0.109375 4.546875 0.109375 C 3.285156 0.109375 2.320312 -0.253906 1.65625 -0.984375 C 1 -1.722656 0.671875 -2.785156 0.671875 -4.171875 C 0.671875 -5.503906 1.054688 -6.546875 1.828125 -7.296875 C 2.597656 -8.046875 3.660156 -8.421875 5.015625 -8.421875 C 5.867188 -8.421875 6.691406 -8.253906 7.484375 -7.921875 L 6.90625 -6.515625 C 6.289062 -6.816406 5.65625 -6.96875 5 -6.96875 C 4.238281 -6.96875 3.628906 -6.707031 3.171875 -6.1875 C 2.710938 -5.675781 2.484375 -4.988281 2.484375 -4.125 C 2.484375 -3.226562 2.664062 -2.539062 3.03125 -2.0625 C 3.40625 -1.59375 3.945312 -1.359375 4.65625 -1.359375 C 5.019531 -1.359375 5.394531 -1.394531 5.78125 -1.46875 L 5.78125 -3.203125 L 4.203125 -3.203125 Z M 4.203125 -4.671875 "/></g></g></g><g fill="#000000" fill-opacity="1"><g transform="translate(114.012735, 22.86758)"><g><path d="M 1.046875 0 L 1.046875 -8.3125 L 2.8125 -8.3125 L 2.8125 -1.453125 L 6.171875 -1.453125 L 6.171875 0 Z M 1.046875 0 "/></g></g></g><g fill="#000000" fill-opacity="1"><g transform="translate(120.586944, 22.86758)"><g><path d="M 5.828125 0 L 1.046875 0 L 1.046875 -8.3125 L 5.828125 -8.3125 L 5.828125 -6.859375 L 2.8125 -6.859375 L 2.8125 -5.046875 L 5.625 -5.046875 L 5.625 -3.59375 L 2.8125 -3.59375 L 2.8125 -1.453125 L 5.828125 -1.453125 Z M 5.828125 0 "/></g></g></g><g clip-path="url(#7695371953)"><g clip-path="url(#328514b433)"><g clip-path="url(#1493786638)"><path fill="#000000" d="M 107.109375 21.742188 L 102.402344 15.476562 L 103.703125 14.5 L 108.410156 20.765625 Z M 107.109375 21.742188 " fill-opacity="1" fill-rule="nonzero"/></g></g></g><g clip-path="url(#b6eed2beb5)"><path fill="#000000" d="M 29.8125 35.421875 L 49.839844 35.421875 L 59.855469 18.074219 L 49.839844 0.730469 L 29.8125 0.730469 L 19.796875 18.074219 Z M 31.589844 3.8125 L 48.058594 3.8125 L 48.109375 3.898438 L 56.292969 18.074219 L 56.246094 18.160156 L 48.058594 32.339844 L 31.589844 32.339844 L 31.542969 32.253906 L 23.355469 18.074219 L 23.40625 17.992188 Z M 31.589844 3.8125 " fill-opacity="1" fill-rule="nonzero"/></g><g clip-path="url(#dc38fa09b7)"><g clip-path="url(#580bab99ef)"><g clip-path="url(#64a1442f04)"><path fill="#000000" d="M 44.855469 31.519531 L 54.351562 15.574219 L 56.101562 16.617188 L 46.605469 32.5625 Z M 44.855469 31.519531 " fill-opacity="1" fill-rule="nonzero"/></g></g></g><g clip-path="url(#c2122d855a)"><g clip-path="url(#4be131e1ca)"><g clip-path="url(#0040338aa7)"><path fill="#000000" d="M 49.136719 30.136719 L 45.660156 32.625 L 44.8125 31.441406 L 48.292969 28.953125 Z M 49.136719 30.136719 " fill-opacity="1" fill-rule="nonzero"/></g></g></g><g clip-path="url(#7f95d3d525)"><g clip-path="url(#04ac1225f7)"><g clip-path="url(#c845feb0e2)"><path fill="#000000" d="M 46.246094 30.429688 L 47.183594 28.835938 L 48.394531 29.546875 L 47.460938 31.140625 Z M 46.246094 30.429688 " fill-opacity="1" fill-rule="nonzero"/></g></g></g><g clip-path="url(#f6502ddfdf)"><g clip-path="url(#e8c579093e)"><g clip-path="url(#e1e775117a)"><path fill="#000000" d="M 37.976562 35.085938 L 51.804688 11.832031 L 53.804688 13.019531 L 39.976562 36.273438 Z M 37.976562 35.085938 " fill-opacity="1" fill-rule="nonzero"/></g></g></g><g clip-path="url(#353fe4bd40)"><g clip-path="url(#60b56c3f3c)"><g clip-path="url(#42a18bf092)"><path fill="#ffffff" d="M 53.003906 12.671875 L 53.707031 16.339844 L 50.214844 17.007812 L 49.515625 13.339844 Z M 53.003906 12.671875 " fill-opacity="1" fill-rule="nonzero"/></g></g></g><g clip-path="url(#a21c58d4ac)"><g clip-path="url(#2a61c0fe83)"><g clip-path="url(#a930130a43)"><path fill="#ffffff" d="M 52.140625 16.550781 L 52.476562 18.308594 L 50.507812 18.683594 L 50.171875 16.925781 Z M 52.140625 16.550781 " fill-opacity="1" fill-rule="nonzero"/></g></g></g><g clip-path="url(#7e47874be3)"><g clip-path="url(#463a1c0cf3)"><g clip-path="url(#d076690a9a)"><path fill="#ffffff" d="M 54.277344 15.734375 L 55.394531 17.4375 L 53.140625 18.914062 L 52.027344 17.214844 Z M 54.277344 15.734375 " fill-opacity="1" fill-rule="nonzero"/></g></g></g><g clip-path="url(#da334c9873)"><g clip-path="url(#07be7e54d3)"><g clip-path="url(#df62bb3f3d)"><path fill="#ffffff" d="M 53.5 17.339844 L 54.230469 21.148438 L 52.269531 21.523438 L 51.539062 17.714844 Z M 53.5 17.339844 " fill-opacity="1" fill-rule="nonzero"/></g></g></g><g clip-path="url(#63d1e1ad01)"><g clip-path="url(#78beb7c0a2)"><g clip-path="url(#49a8142dbd)"><path fill="#ffffff" d="M 54.414062 17.078125 L 55.703125 17.691406 L 53.902344 21.46875 L 52.613281 20.851562 Z M 54.414062 17.078125 " fill-opacity="1" fill-rule="nonzero"/></g></g></g><g clip-path="url(#39648f331d)"><g clip-path="url(#c9d4456c90)"><g clip-path="url(#f908f126f7)"><path fill="#ffffff" d="M 53.449219 21.03125 L 53.707031 22.375 L 52.5 22.605469 L 52.242188 21.261719 Z M 53.449219 21.03125 " fill-opacity="1" fill-rule="nonzero"/></g></g></g><g clip-path="url(#699284bcd2)"><g clip-path="url(#89f62bc902)"><g clip-path="url(#618174c92a)"><path fill="#000000" d="M 46.851562 17.71875 L 38.09375 9.617188 L 39.792969 7.777344 L 48.550781 15.878906 Z M 46.851562 17.71875 " fill-opacity="1" fill-rule="nonzero"/></g></g></g><g clip-path="url(#2a3d439d57)"><g clip-path="url(#a8936cb69d)"><g clip-path="url(#b713914a03)"><path fill="#ffffff" d="M 47.203125 31.765625 L 47.675781 30.992188 L 48.296875 31.375 L 47.828125 32.144531 Z M 47.203125 31.765625 " fill-opacity="1" fill-rule="nonzero"/></g></g></g><g clip-path="url(#6fcdb1c36b)"><g clip-path="url(#751851dd5d)"><g clip-path="url(#d6a46cd5de)"><path fill="#000000" d="M 27.335938 20.875 L 39.824219 7.773438 L 41.640625 9.503906 L 29.148438 22.605469 Z M 27.335938 20.875 " fill-opacity="1" fill-rule="nonzero"/></g></g></g><g clip-path="url(#201a67b0ec)"><g clip-path="url(#8359610289)"><g clip-path="url(#ed94a2b64c)"><path fill="#ffffff" d="M 51.121094 15.152344 L 51.542969 15.796875 L 50.777344 16.296875 L 50.355469 15.652344 Z M 51.121094 15.152344 " fill-opacity="1" fill-rule="nonzero"/></g></g></g><g clip-path="url(#d1b993e819)"><g clip-path="url(#6de564af3f)"><g clip-path="url(#c8c8fe8e4e)"><path fill="#000000" d="M 47.394531 16.300781 L 48.292969 17.078125 L 47.355469 18.160156 L 46.457031 17.378906 Z M 47.394531 16.300781 " fill-opacity="1" fill-rule="nonzero"/></g></g></g><g clip-path="url(#8e50a0d54f)"><g clip-path="url(#a638f7a03f)"><g clip-path="url(#c9826318bb)"><path fill="#000000" d="M 46.609375 17.671875 L 47.964844 15.574219 L 48.722656 16.066406 L 47.371094 18.160156 Z M 46.609375 17.671875 " fill-opacity="1" fill-rule="nonzero"/></g></g></g><g clip-path="url(#9e0b9acdf1)"><g clip-path="url(#6e14750176)"><g clip-path="url(#33249ffa40)"><path fill="#000000" d="M 47.101562 17.980469 L 46.261719 17.222656 L 47.941406 15.359375 L 48.78125 16.117188 Z M 47.101562 17.980469 " fill-opacity="1" fill-rule="nonzero"/></g></g></g><g clip-path="url(#8f3e8b6135)"><g clip-path="url(#6ea4a2231c)"><g clip-path="url(#eb447886f8)"><path fill="#ffffff" d="M 46.40625 18.230469 L 48.335938 15.210938 L 49.40625 15.898438 L 47.472656 18.914062 Z M 46.40625 18.230469 " fill-opacity="1" fill-rule="nonzero"/></g></g></g><g clip-path="url(#61b83b5f78)"><g clip-path="url(#a698c1098d)"><g clip-path="url(#16b901366d)"><path fill="#000000" d="M 35.097656 28.222656 L 27.332031 20.84375 L 29.058594 19.023438 L 36.824219 26.40625 Z M 35.097656 28.222656 " fill-opacity="1" fill-rule="nonzero"/></g></g></g><g clip-path="url(#4e4bfe233b)"><g clip-path="url(#61a17be444)"><g clip-path="url(#bda818dd70)"><path fill="#000000" d="M 43.535156 28.40625 L 35.070312 28.253906 L 35.105469 26.246094 L 43.570312 26.398438 Z M 43.535156 28.40625 " fill-opacity="1" fill-rule="nonzero"/></g></g></g><g clip-path="url(#443c614a99)"><g clip-path="url(#7ca7e0dc6d)"><g clip-path="url(#975abcddce)"><path fill="#ffffff" d="M 40.175781 28.769531 L 45.332031 20 L 46.46875 20.667969 L 41.308594 29.4375 Z M 40.175781 28.769531 " fill-opacity="1" fill-rule="nonzero"/></g></g></g><g clip-path="url(#39628b318d)"><g clip-path="url(#2b4dc80d1c)"><path fill="#000000" d="M 36.230469 13.019531 L 43.429688 13.019531 L 43.429688 24.164062 L 36.230469 24.164062 Z M 36.230469 13.019531 " fill-opacity="1" fill-rule="nonzero"/></g></g><g clip-path="url(#e9cd6f034d)"><path fill="#ffffff" d="M 41.429688 13.023438 L 41.429688 15.652344 L 38.214844 15.652344 L 38.214844 13.023438 Z M 41.429688 13.023438 " fill-opacity="1" fill-rule="nonzero"/></g><g clip-path="url(#b8aae1b3b4)"><path fill="#ffffff" d="M 44.410156 31.285156 L 44.992188 31.285156 L 44.992188 31.863281 L 44.410156 31.863281 Z M 44.410156 31.285156 " fill-opacity="1" fill-rule="nonzero"/></g><g clip-path="url(#de29b880a5)"><g clip-path="url(#ceb6206aa3)"><path fill="#000000" d="M 33.082031 6.667969 L 35.3125 6.667969 L 35.3125 8.898438 L 33.082031 8.898438 Z M 33.082031 6.667969 " fill-opacity="1" fill-rule="nonzero"/></g></g><g clip-path="url(#e7f4085681)"><g clip-path="url(#421b8b20aa)"><g clip-path="url(#e2fa84253b)"><path fill="#000000" d="M 42.757812 11.253906 L 45.382812 8.246094 L 46.875 9.546875 L 44.25 12.554688 Z M 42.757812 11.253906 " fill-opacity="1" fill-rule="nonzero"/></g></g></g><g clip-path="url(#2848b21240)"><g clip-path="url(#4404aab1a2)"><g clip-path="url(#807c596812)"><path fill="#000000" d="M 45.429688 8.164062 L 50.132812 12.140625 L 48.914062 13.585938 L 44.207031 9.605469 Z M 45.429688 8.164062 " fill-opacity="1" fill-rule="nonzero"/></g></g></g><g clip-path="url(#75a752fd0b)"><path fill="#ffffff" d="M 46.730469 11.851562 L 50.191406 11.851562 L 50.191406 13.703125 L 46.730469 13.703125 Z M 46.730469 11.851562 " fill-opacity="1" fill-rule="nonzero"/></g><g clip-path="url(#c45232d5b1)"><g clip-path="url(#701cd6cfff)"><g clip-path="url(#f0c53b9e76)"><path fill="#000000" d="M 32.792969 16.296875 L 29.609375 13.109375 L 31.007812 11.710938 L 34.191406 14.898438 Z M 32.792969 16.296875 " fill-opacity="1" fill-rule="nonzero"/></g></g></g><g clip-path="url(#dc56028e1a)"><g clip-path="url(#5b65901371)"><g clip-path="url(#314621263b)"><path fill="#000000" d="M 26.464844 16.195312 L 30.949219 11.710938 L 32.285156 13.046875 L 27.800781 17.53125 Z M 26.464844 16.195312 " fill-opacity="1" fill-rule="nonzero"/></g></g></g><g clip-path="url(#c6fed2b05e)"><path fill="#ffffff" d="M 26.035156 15.679688 L 30.1875 15.679688 L 30.1875 17.535156 L 26.035156 17.535156 Z M 26.035156 15.679688 " fill-opacity="1" fill-rule="nonzero"/></g><g clip-path="url(#029ea958e1)"><g clip-path="url(#bbb76452ca)"><g clip-path="url(#f923d19811)"><path fill="#000000" d="M 35.761719 29.476562 L 34.144531 32.152344 L 30.304688 29.835938 L 31.921875 27.15625 Z M 35.761719 29.476562 " fill-opacity="1" fill-rule="nonzero"/></g></g></g><g clip-path="url(#178df2430b)"><g clip-path="url(#365a1fedcb)"><g clip-path="url(#d7ae0d26e2)"><path fill="#ffffff" d="M 30.652344 27.902344 L 32.796875 31.460938 L 31.640625 32.15625 L 29.5 28.597656 Z M 30.652344 27.902344 " fill-opacity="1" fill-rule="nonzero"/></g></g></g><g clip-path="url(#ab9d96f0a3)"><g clip-path="url(#ca56721131)"><g clip-path="url(#6a39686386)"><path fill="#fefeff" d="M 49.855469 14.796875 L 53.199219 12.933594 L 56.109375 18.140625 L 52.765625 20.007812 Z M 49.855469 14.796875 " fill-opacity="1" fill-rule="nonzero"/></g></g></g></svg>